P1
# Bitmap avion bas
6 6
0 0 1 1 0 0
0 0 1 0 0 0
0 0 1 0 0 0
1 0 1 0 1 0
0 1 1 1 0 0
0 0 1 0 0 0
