P1
# Bitmap Avion gauche
6 6
0 0 0 0 0 0
0 0 1 0 0 0
0 1 0 0 0 1
1 1 1 1 1 1
0 1 0 0 0 0
0 0 1 0 0 0
