P1
# Bitmap nombre "3"
3 5
1 1 1
0 0 1
1 1 1
0 0 1
1 1 1
