P1
# Bitmap nombre "1"
5 3
0 1 0
0 1 0
0 1 0
0 1 0
0 1 0
