P1
# Bitmap ":"
3 1
1
0
1
